<svg width="69" height="30" viewBox="0 0 69 30" fill="none" xmlns="http://www.w3.org/2000/svg">
<path fill-rule="evenodd" clip-rule="evenodd" d="M0 0H2.49097V9.66287H66.509V0H69V12H0V0Z" fill="black"/>
<path d="M10.3774 19L15.6214 29.8525H13.7104L12.7772 27.7292H7.78497L6.85171 29.8525H5L10.2144 19H10.3774ZM9.63668 23.6153L8.45159 26.2399H12.1254L10.9551 23.63L10.3181 22.1408H10.2885L9.63668 23.6153Z" fill="black"/>
<path d="M18.5682 30C17.63 30 16.9831 29.7248 16.6276 29.1743C16.2819 28.6238 16.1091 27.857 16.1091 26.874V23.0845H17.709V26.4759C17.709 27.0362 17.7386 27.4736 17.7979 27.7882C17.867 28.0929 17.9954 28.319 18.183 28.4665C18.3805 28.6139 18.6719 28.6877 19.057 28.6877C19.3335 28.6877 19.6002 28.609 19.857 28.4517C20.1137 28.2945 20.3211 28.0831 20.4791 27.8177C20.647 27.5425 20.731 27.2426 20.731 26.9182V23.0845H22.316V29.8525H21.0124L20.8347 28.8646C20.5878 29.248 20.2767 29.5331 19.9014 29.7198C19.536 29.9066 19.0916 30 18.5682 30Z" fill="black"/>
<path d="M25.0368 24.382H23.8369V23.0845H25.0368V20.3271L26.6515 19.9732V23.0845H28.2217V24.382H26.6515V29.8525H25.0368V24.382Z" fill="black"/>
<path d="M29.596 19.0147H31.1515V23.0845L31.0922 24.3378C31.2798 23.9249 31.5811 23.5858 31.9958 23.3204C32.4106 23.0451 32.8945 22.9075 33.4476 22.9075C34.1488 22.9075 34.687 23.055 35.0623 23.3499C35.4375 23.6349 35.6894 24.038 35.8178 24.559C35.9461 25.08 36.0103 25.7583 36.0103 26.5938V29.8525H34.4253V26.5791C34.4253 26.0089 34.3907 25.5617 34.3216 25.2373C34.2623 24.9129 34.1339 24.6671 33.9364 24.5C33.7488 24.3329 33.4723 24.2493 33.1069 24.2493C32.8106 24.2493 32.5094 24.3378 32.2032 24.5147C31.907 24.6917 31.6601 24.9522 31.4625 25.2962C31.265 25.6305 31.1663 26.0286 31.1663 26.4906V29.8525H29.596V19.0147Z" fill="black"/>
<path d="M41.2128 30C40.5117 30 39.8895 29.8427 39.3463 29.5282C38.8031 29.2136 38.3834 28.786 38.0872 28.2453C37.7909 27.7046 37.6427 27.105 37.6427 26.4464C37.6427 25.7976 37.7859 25.2029 38.0723 24.6622C38.3686 24.1215 38.7883 23.6939 39.3315 23.3794C39.8747 23.0648 40.5018 22.9075 41.2128 22.9075C41.9239 22.9075 42.5461 23.0648 43.0794 23.3794C43.6225 23.6939 44.0373 24.1215 44.3237 24.6622C44.62 25.2029 44.7681 25.7976 44.7681 26.4464C44.7681 27.105 44.62 27.7046 44.3237 28.2453C44.0274 28.786 43.6077 29.2136 43.0645 29.5282C42.5313 29.8427 41.914 30 41.2128 30ZM41.2573 28.7024C41.8301 28.7024 42.2794 28.4911 42.6053 28.0684C42.9411 27.6457 43.109 27.1148 43.109 26.4759C43.109 25.8369 42.9312 25.3012 42.5757 24.8686C42.2202 24.4263 41.7511 24.2051 41.1684 24.2051C40.6055 24.2051 40.1512 24.4214 39.8055 24.8539C39.4698 25.2864 39.3019 25.8271 39.3019 26.4759C39.3019 27.105 39.4846 27.6358 39.85 28.0684C40.2154 28.4911 40.6845 28.7024 41.2573 28.7024Z" fill="black"/>
<path d="M46.4322 23.0845H48.0321V24.4115C48.1901 23.9593 48.4469 23.5956 48.8024 23.3204C49.1579 23.0451 49.5628 22.9075 50.0171 22.9075C50.3332 22.9075 50.5504 22.937 50.6689 22.996L50.4467 24.6032C50.3578 24.5442 50.1653 24.5147 49.869 24.5147C49.4048 24.5147 48.9802 24.6622 48.595 24.9571C48.2197 25.252 48.0321 25.7239 48.0321 26.3727V29.8525H46.4322V23.0845Z" fill="black"/>
<path d="M51.9188 23.0845H53.578V29.8525H51.9188V23.0845ZM52.7336 21.8164C52.4274 21.8164 52.1707 21.7131 51.9633 21.5067C51.7559 21.3003 51.6522 21.0447 51.6522 20.7399C51.6522 20.4647 51.7559 20.2288 51.9633 20.0322C52.1707 19.8356 52.4274 19.7373 52.7336 19.7373C53.0299 19.7373 53.2817 19.8356 53.4891 20.0322C53.6965 20.2288 53.8002 20.4647 53.8002 20.7399C53.8002 21.0447 53.6965 21.3003 53.4891 21.5067C53.2916 21.7131 53.0397 21.8164 52.7336 21.8164Z" fill="black"/>
<path d="M59.0076 30C58.1978 30 57.5213 29.8427 56.9782 29.5282C56.435 29.2038 56.035 28.7761 55.7783 28.2453C55.5215 27.7046 55.3931 27.1148 55.3931 26.4759C55.3931 25.7583 55.5412 25.1291 55.8375 24.5885C56.1437 24.0478 56.5634 23.6349 57.0967 23.3499C57.63 23.055 58.2324 22.9075 58.9039 22.9075C59.9508 22.9075 60.726 23.1975 61.2297 23.7775C61.7432 24.3476 62 25.1537 62 26.1957C62 26.4611 61.9852 26.7364 61.9556 27.0214H57.067C57.1757 27.6211 57.388 28.0536 57.704 28.319C58.0299 28.5845 58.4793 28.7172 59.0521 28.7172C59.5261 28.7172 59.9162 28.6778 60.2224 28.5992C60.5285 28.5206 60.81 28.4124 61.0667 28.2748L61.5556 29.4102C61.3087 29.5675 60.9729 29.7051 60.5483 29.8231C60.1236 29.941 59.6101 30 59.0076 30ZM60.4446 25.9156C60.4544 25.3061 60.3211 24.8785 60.0446 24.6327C59.7681 24.3771 59.373 24.2493 58.8595 24.2493C57.8225 24.2493 57.2251 24.8047 57.067 25.9156H60.4446Z" fill="black"/>
</svg>
