<svg width="38" height="38" viewBox="0 0 38 38" fill="none" xmlns="http://www.w3.org/2000/svg">
<path d="M22.6367 29.7077C22.6367 30.0946 22.4433 30.288 22.0565 30.288C21.775 30.288 21.5906 30.1563 21.5025 29.8921L20.6671 27.3859H16.4811L15.6457 29.8921C15.5576 30.1563 15.3732 30.288 15.0918 30.288C14.7049 30.288 14.5115 30.0946 14.5115 29.7077C14.5115 29.6377 14.5205 29.576 14.5378 29.5233L17.9938 19.1456C18.0992 18.835 18.2926 18.6797 18.5741 18.6797C18.8556 18.6797 19.0462 18.8294 19.1461 19.1282L22.6111 29.5233C22.6277 29.576 22.6367 29.637 22.6367 29.7077ZM18.5734 21.1069L16.8672 26.2254H20.2796L18.5734 21.1069Z" fill="#DCAE36"/>
<path d="M28.9898 13.22V20.7657C28.9898 21.7273 28.6494 22.5482 27.9693 23.2283C27.2892 23.9084 26.4683 24.2488 25.5067 24.2488C24.5451 24.2488 23.7243 23.9091 23.0442 23.2283C22.3641 22.5482 22.0237 21.7273 22.0237 20.7657V13.22C22.0237 12.8332 22.2171 12.6398 22.604 12.6398C22.9908 12.6398 23.1842 12.8332 23.1842 13.22V20.7657C23.1842 21.4167 23.4082 21.9658 23.8567 22.415C24.3053 22.8636 24.855 23.0875 25.506 23.0875C26.157 23.0875 26.7061 22.8629 27.1554 22.415C27.6039 21.9665 27.8278 21.4167 27.8278 20.7657V13.22C27.8278 12.8332 28.0213 12.6398 28.4081 12.6398C28.7964 12.6398 28.9898 12.8332 28.9898 13.22Z" fill="#DCAE36"/>
<path fill-rule="evenodd" clip-rule="evenodd" d="M9.87501 11C10.2202 11 10.5 11.2798 10.5 11.625V12.25H11.125C11.4702 12.25 11.75 12.5298 11.75 12.875C11.75 13.2202 11.4702 13.5 11.125 13.5H10.5V14.125C10.5 14.4702 10.2202 14.75 9.87501 14.75C9.52983 14.75 9.25 14.4702 9.25 14.125V13.5H8.625C8.27982 13.5 8 13.2202 8 12.875C8 12.5298 8.27982 12.25 8.625 12.25H9.25V11.625C9.25 11.2798 9.52983 11 9.87501 11ZM9.87501 17.25C10.2202 17.25 10.5 17.5298 10.5 17.875V18.5H11.125C11.4702 18.5 11.75 18.7798 11.75 19.125C11.75 19.4702 11.4702 19.75 11.125 19.75H10.5V20.375C10.5 20.7202 10.2202 21 9.87501 21C9.52983 21 9.25 20.7202 9.25 20.375V19.75H8.625C8.27982 19.75 8 19.4702 8 19.125C8 18.7798 8.27982 18.5 8.625 18.5H9.25V17.875C9.25 17.5298 9.52983 17.25 9.87501 17.25Z" fill="#DCAE36"/>
<path fill-rule="evenodd" clip-rule="evenodd" d="M14.25 11C14.5336 11 14.7816 11.1909 14.8542 11.4651L15.5912 14.2493L17.6873 15.4586C17.8808 15.5703 18 15.7766 18 16C18 16.2234 17.8808 16.4297 17.6873 16.5414L15.5912 17.7507L14.8542 20.5349C14.7816 20.8091 14.5336 21 14.25 21C13.9664 21 13.7184 20.8091 13.6458 20.5349L12.9088 17.7507L10.8127 16.5414C10.6192 16.4297 10.5 16.2234 10.5 16C10.5 15.7766 10.6192 15.5703 10.8127 15.4586L12.9088 14.2493L13.6458 11.4651C13.7184 11.1909 13.9664 11 14.25 11Z" fill="#DCAE36"/>
<circle cx="19" cy="19" r="18.5" stroke="#DCAE36"/>
</svg>
