<svg width="30" height="30" viewBox="0 0 30 30" fill="none" xmlns="http://www.w3.org/2000/svg">
<path d="M17.8712 23.4534C17.8712 23.7588 17.7185 23.9115 17.4131 23.9115C17.1909 23.9115 17.0453 23.8075 16.9758 23.599L16.3163 21.6204H13.0115L12.352 23.599C12.2825 23.8075 12.1369 23.9115 11.9147 23.9115C11.6092 23.9115 11.4565 23.7588 11.4565 23.4534C11.4565 23.3981 11.4637 23.3494 11.4773 23.3078L14.2058 15.1149C14.289 14.8697 14.4417 14.7471 14.6639 14.7471C14.8861 14.7471 15.0366 14.8653 15.1154 15.1012L17.851 23.3078C17.8641 23.3494 17.8712 23.3976 17.8712 23.4534ZM14.6633 16.6633L13.3164 20.7042H16.0103L14.6633 16.6633Z" fill="#F59E0B"/>
<path d="M22.8868 10.4369V16.394C22.8868 17.1531 22.618 17.8012 22.0811 18.3381C21.5442 18.875 20.8961 19.1438 20.137 19.1438C19.3778 19.1438 18.7298 18.8756 18.1929 18.3381C17.6559 17.8012 17.3872 17.1531 17.3872 16.394V10.4369C17.3872 10.1315 17.5399 9.97876 17.8453 9.97876C18.1507 9.97876 18.3034 10.1315 18.3034 10.4369V16.394C18.3034 16.9079 18.4802 17.3414 18.8343 17.6961C19.1885 18.0502 19.6225 18.227 20.1364 18.227C20.6504 18.227 21.0839 18.0497 21.4385 17.6961C21.7926 17.342 21.9694 16.9079 21.9694 16.394V10.4369C21.9694 10.1315 22.1221 9.97876 22.4275 9.97876C22.7341 9.97876 22.8868 10.1315 22.8868 10.4369Z" fill="#F59E0B"/>
<path fill-rule="evenodd" clip-rule="evenodd" d="M7.79594 8.6842C8.06845 8.6842 8.28936 8.90512 8.28936 9.17763V9.67105H8.78279C9.0553 9.67105 9.27621 9.89196 9.27621 10.1645C9.27621 10.437 9.0553 10.6579 8.78279 10.6579H8.28936V11.1513C8.28936 11.4238 8.06845 11.6447 7.79594 11.6447C7.52343 11.6447 7.30252 11.4238 7.30252 11.1513V10.6579H6.8091C6.53659 10.6579 6.31567 10.437 6.31567 10.1645C6.31567 9.89196 6.53659 9.67105 6.8091 9.67105H7.30252V9.17763C7.30252 8.90512 7.52343 8.6842 7.79594 8.6842ZM7.79594 13.6184C8.06845 13.6184 8.28936 13.8393 8.28936 14.1118V14.6053H8.78279C9.0553 14.6053 9.27621 14.8262 9.27621 15.0987C9.27621 15.3712 9.0553 15.5921 8.78279 15.5921H8.28936V16.0855C8.28936 16.358 8.06845 16.5789 7.79594 16.5789C7.52343 16.5789 7.30252 16.358 7.30252 16.0855V15.5921H6.8091C6.53659 15.5921 6.31567 15.3712 6.31567 15.0987C6.31567 14.8262 6.53659 14.6053 6.8091 14.6053H7.30252V14.1118C7.30252 13.8393 7.52343 13.6184 7.79594 13.6184Z" fill="#F59E0B"/>
<path fill-rule="evenodd" clip-rule="evenodd" d="M11.2499 8.6842C11.4738 8.6842 11.6696 8.83494 11.7269 9.05136L12.3087 11.2495L13.9636 12.2042C14.1163 12.2923 14.2104 12.4552 14.2104 12.6316C14.2104 12.8079 14.1163 12.9708 13.9636 13.059L12.3087 14.0137L11.7269 16.2118C11.6696 16.4282 11.4738 16.5789 11.2499 16.5789C11.026 16.5789 10.8302 16.4282 10.7729 16.2118L10.191 14.0137L8.53621 13.059C8.38347 12.9708 8.28936 12.8079 8.28936 12.6316C8.28936 12.4552 8.38347 12.2923 8.53621 12.2042L10.191 11.2495L10.7729 9.05136C10.8302 8.83494 11.026 8.6842 11.2499 8.6842Z" fill="#F59E0B"/>
<rect x="0.5" y="0.5" width="29" height="29" rx="14.5" stroke="#F59E0B"/>
</svg>
